<svg xmlns="http://www.w3.org/2000/svg" width="304" height="244.924" viewBox="0 0 304 244.924"><g transform="translate(0 0)"><ellipse cx="150.195" cy="11.734" rx="150.195" ry="11.734" transform="translate(3.61 221.457)" fill="#3f3d56"/><path d="M764.421,583.009l1.408,10.323-9.854.938,1.408-12.669Z" transform="translate(-483.034 -371.617)" fill="#a0616a"/><path d="M812.355,303.812s.938,12.669.938,13.139-6.569,32.847-6.569,32.847-9.385,17.831,0,17.362,6.569-16.893,6.569-16.893l9.854-27.216-4.223-19.239Z" transform="translate(-577.422 -234.13)" fill="#a0616a"/><path d="M691.1,583.009l-1.408,10.323,9.854.938L698.138,581.6Z" transform="translate(-440.682 -371.617)" fill="#a0616a"/><path d="M837.439,424.429l-2.346,3.285s-1.408,14.077,0,18.77,4.223,26.277,4.223,27.685.469,2.346,0,2.815-1.877.469-.938,1.408.938,3.754.938,3.754v2.346l6.1,34.724s-3.754,4.223-.938,4.223,13.139,0,12.669-4.692l-.938-.469s-1.408-30.97-.939-32.377a11.977,11.977,0,0,0,0-4.223s-.939-1.408,0-1.877.939-4.223.939-4.223l4.223-28.624s3.754,19.239,6.1,21.116,1.877,6.569,1.877,6.569l1.877,41.293s-1.877,4.692,0,5.631,9.854,4.223,10.323-.469,2.815-45.516,2.815-47.393-.469-2.815,0-4.223-.469-1.408,0-1.408-.938-1.408-.938-2.346V442.729s.469-4.692.938-5.631-.469-1.877,0-3.285-.938-6.1-.938-6.1l-21.116-5.631Z" transform="translate(-597.814 -309.7)" fill="#2f2e41"/><path d="M864.592,715.554s2.346-2.346-.938-2.346a15.273,15.273,0,0,0-6.1,1.408l-2.346,8.446s-9.62,7.742,1.173,6.8,9.15-.235,9.15-.235,3.285-.939,3.754-1.877-.938-14.546-.938-14.546S866.938,716.962,864.592,715.554Z" transform="translate(-608.543 -495.715)" fill="#2f2e41"/><path d="M933.183,715.554s-2.346-2.346.938-2.346a15.274,15.274,0,0,1,6.1,1.408l2.346,8.446s9.619,7.742-1.173,6.8-10.558-.235-10.558-.235-3.285-.938-3.754-1.877,2.346-14.546,2.346-14.546S930.837,716.962,933.183,715.554Z" transform="translate(-656.958 -495.715)" fill="#2f2e41"/><circle cx="12.2" cy="12.2" r="12.2" transform="translate(233.525 8.212)" fill="#a0616a"/><path d="M847.9,183.737s1.877,9.385,1.877,10.793,7.977,5.631,7.977,5.631l8.916-11.262s-5.631-7.977-5.631-9.854Z" transform="translate(-606.395 -154.409)" fill="#a0616a"/><path d="M835.005,208.446s-4.09-1.089-5.33-2.89c0,0-12.971,12.744-12.971,15.091l10.323,18.3s0,6.569.938,7.039,0,0,0,1.877-2.815,14.077-1.877,15.954,1.877.469.938,3.285-3.285,17.831-3.285,17.831,8.446-2.815,20.646,1.877,26.747-1.877,26.747-1.877-3.754-8.446-2.815-11.262-2.346-7.977-2.346-7.977l-2.346-43.17s3.285-19.239.938-20.177l-4.693-1.877-15.027-1.847S841.105,207.977,835.005,208.446Z" transform="translate(-586.465 -166.919)" fill="#d0cde1"/><path d="M819.552,250.526l-4.692,3.285s-2.346,7.039,0,10.323a24.064,24.064,0,0,1,3.285,7.977l9.385-.938Z" transform="translate(-584.62 -200.083)" fill="#d0cde1"/><path d="M826.535,118.33l-2.116-.847s4.425-4.872,10.581-4.448l-1.732-1.906s4.233-1.694,8.08,2.754a37.556,37.556,0,0,1,5.822,8.183h2.266l-.946,2.083,3.311,2.083-3.4-.374a11.526,11.526,0,0,1-.321,5.394l.091,1.646s-3.939-6.094-3.939-6.941v2.118s-2.116-1.906-2.116-3.177l-1.154,1.483-.577-2.33-7.118,2.33,1.154-1.906-4.425.635,1.732-2.33s-5,2.754-5.195,5.083-2.693,5.3-2.693,5.3l-1.154-2.118S820.956,121.507,826.535,118.33Z" transform="translate(-590.125 -110.812)" fill="#2f2e41"/><rect width="186.466" height="130.986" transform="translate(52.774 102.115)" fill="#f2f2f2"/><rect width="46.82" height="81.731" transform="translate(68.47 152.093)" fill="#3f3d56"/><rect width="12.612" height="11.757" transform="translate(77.131 156.996)" fill="#f2f2f2"/><rect width="12.612" height="11.757" transform="translate(94.018 156.996)" fill="#f2f2f2"/><rect width="12.612" height="12.184" transform="translate(77.131 173.028)" fill="#f2f2f2"/><rect width="12.612" height="12.184" transform="translate(94.018 173.028)" fill="#f2f2f2"/><circle cx="2.977" cy="2.977" r="2.977" transform="translate(106.359 195.484)" fill="#5abd8c"/><rect width="92.556" height="77.672" transform="translate(130.987 144.334)" fill="#3f3d56"/><path d="M317.637,239.9H92.2l15.031-31.426,3.364-7.036,4.4-9.2,3.364-7.036,3.9-8.151H299.875l2.3,8.151,1.989,7.036,2.6,9.2,1.989,7.036Z" transform="translate(-58.911 -113.127)" fill="#3f3d56"/><rect width="3.248" height="20.027" transform="translate(134.234 176.539)" fill="#5abd8c"/><rect width="3.248" height="2.436" transform="translate(134.234 179.517)" fill="#f2f2f2"/><rect width="3.248" height="2.436" transform="translate(134.234 191.154)" fill="#f2f2f2"/><rect width="7.848" height="20.027" transform="translate(139.106 176.539)" fill="#5abd8c"/><rect width="7.848" height="2.436" transform="translate(139.106 179.517)" fill="#f2f2f2"/><rect width="7.848" height="2.436" transform="translate(139.106 191.154)" fill="#f2f2f2"/><rect width="3.248" height="20.027" transform="translate(148.848 176.539)" fill="#5abd8c"/><rect width="3.248" height="2.436" transform="translate(148.848 179.517)" fill="#f2f2f2"/><rect width="3.248" height="2.436" transform="translate(148.848 191.154)" fill="#f2f2f2"/><rect width="3.248" height="20.027" transform="translate(153.72 176.539)" fill="#5abd8c"/><rect width="3.248" height="2.436" transform="translate(153.72 179.517)" fill="#f2f2f2"/><rect width="3.248" height="2.436" transform="translate(153.72 191.154)" fill="#f2f2f2"/><rect width="3.248" height="20.027" transform="translate(157.06 177.755) rotate(-20.654)" fill="#5abd8c"/><rect width="3.248" height="2.436" transform="translate(158.11 180.541) rotate(-20.654)" fill="#f2f2f2"/><rect width="3.248" height="2.436" transform="translate(162.215 191.43) rotate(-20.654)" fill="#f2f2f2"/><rect width="7.848" height="20.027" transform="translate(212.718 176.539)" fill="#5abd8c"/><rect width="7.848" height="2.436" transform="translate(212.718 179.517)" fill="#f2f2f2"/><rect width="7.848" height="2.436" transform="translate(212.718 191.154)" fill="#f2f2f2"/><rect width="3.248" height="20.027" transform="translate(207.576 176.539)" fill="#5abd8c"/><rect width="3.248" height="2.436" transform="translate(207.576 179.517)" fill="#f2f2f2"/><rect width="3.248" height="2.436" transform="translate(207.576 191.154)" fill="#f2f2f2"/><rect width="3.248" height="20.027" transform="translate(202.704 176.539)" fill="#5abd8c"/><rect width="3.248" height="2.436" transform="translate(202.704 179.517)" fill="#f2f2f2"/><rect width="3.248" height="2.436" transform="translate(202.704 191.154)" fill="#f2f2f2"/><rect width="20.027" height="3.248" transform="translate(192.513 195.35) rotate(-69.346)" fill="#5abd8c"/><rect width="2.436" height="3.248" transform="translate(197.668 181.675) rotate(-69.346)" fill="#f2f2f2"/><rect width="2.436" height="3.248" transform="translate(193.563 192.565) rotate(-69.346)" fill="#f2f2f2"/><rect width="92.556" height="1.894" transform="translate(130.987 196.567)" fill="#f2f2f2"/><rect width="17.05" height="20.027" transform="translate(171.311 176.539)" fill="#5abd8c"/><rect width="8.66" height="3.789" transform="translate(175.506 180.87)" fill="#f2f2f2"/><rect width="1.624" height="17.321" transform="translate(176.453 144.334)" fill="#f2f2f2"/><circle cx="2.706" cy="2.706" r="2.706" transform="translate(174.559 158.948)" fill="#f2f2f2"/><path d="M344.51,206.664H155.337l3.364-7.036h183.82Z" transform="translate(-99.253 -127.553)" fill="#5abd8c"/><path d="M335.358,251.639H133.831l3.364-7.036H333.369Z" transform="translate(-85.512 -156.29)" fill="#5abd8c"/><path d="M844.26,262.223a35.889,35.889,0,0,0-2.15,13.9,7.326,7.326,0,0,0,1.211,3.461h0l-33.29,15.8s-15.042,1.557-11.288,8.127,17.362-3.285,17.362-3.285,35.662-5.162,38.478-10.323,4.692-26.747,4.692-26.747Z" transform="translate(-574.604 -207.557)" fill="#a0616a"/><path d="M923.963,208.937H931s5.162.938,6.569,10.323,2.815,11.731,1.408,11.731-18.3-.469-18.3-.938S923.963,208.937,923.963,208.937Z" transform="translate(-652.899 -173.509)" fill="#d0cde1"/><circle cx="36.105" cy="36.105" r="36.105" transform="translate(0 103.395)" fill="#5abd8c"/><circle cx="31.05" cy="31.05" r="31.05" transform="translate(5.055 108.449)" opacity="0.1"/><path d="M264.214,482.924V478.4a10.494,10.494,0,0,1-6.026-1.969l.945-3a9.633,9.633,0,0,0,5.672,1.924,4.344,4.344,0,0,0,4.687-4.385c0-2.461-1.536-3.982-4.451-5.325-4.018-1.79-6.5-3.848-6.5-7.741a7.035,7.035,0,0,1,5.948-7.2v-4.519h2.442v4.34a9.583,9.583,0,0,1,5.121,1.566l-.985,2.953a8.7,8.7,0,0,0-4.963-1.521c-3.033,0-4.175,2.058-4.175,3.848,0,2.327,1.457,3.49,4.884,5.1,4.057,1.879,6.105,4.206,6.105,8.188a7.488,7.488,0,0,1-6.223,7.606v4.654Z" transform="translate(-229.597 -325.102)" fill="#f2f2f2"/></g></svg>